{
  "asset": {
    "generator": "Khronos glTF Blender I/O v5.1.19",
    "version": "2.0"
  },
  "scene": 0,
  "scenes": [
    {
      "name": "Scene",
      "nodes": [
        0
      ]
    }
  ],
  "nodes": [
    {
      "mesh": 0,
      "name": "tb_blender_cable_reel"
    }
  ],
  "meshes": [
    {
      "name": "tb_blender_cable_reel_mesh",
      "primitives": [
        {
          "attributes": {
            "POSITION": 0,
            "NORMAL": 1
          },
          "indices": 2
        }
      ]
    }
  ],
  "accessors": [
    {
      "bufferView": 0,
      "componentType": 5126,
      "count": 368,
      "max": [
        0.3400000035762787,
        0.7599999904632568,
        0.3799999952316284
      ],
      "min": [
        -0.3400000035762787,
        0,
        -0.3799999952316284
      ],
      "type": "VEC3"
    },
    {
      "bufferView": 1,
      "componentType": 5126,
      "count": 368,
      "type": "VEC3"
    },
    {
      "bufferView": 2,
      "componentType": 5123,
      "count": 720,
      "type": "SCALAR"
    }
  ],
  "bufferViews": [
    {
      "buffer": 0,
      "byteLength": 4416,
      "byteOffset": 0,
      "target": 34962
    },
    {
      "buffer": 0,
      "byteLength": 4416,
      "byteOffset": 4416,
      "target": 34962
    },
    {
      "buffer": 0,
      "byteLength": 1440,
      "byteOffset": 8832,
      "target": 34963
    }
  ],
  "buffers": [
    {
      "byteLength": 10272,
      "uri": "data:application/octet-stream;base64,"
    }
  ]
}
