{
  "asset": {
    "version": "2.0",
    "generator": "Tidebreak tools/create_simple_prop_gltf.py v1.00 Cinder Harbor shore shelf fallback helper",
    "extras": {
      "tidebreakSource": "project-original fallback geometry",
      "notBlenderExport": true
    }
  },
  "scene": 0,
  "scenes": [
    {
      "nodes": [
        0
      ]
    }
  ],
  "nodes": [
    {
      "mesh": 0,
      "name": "cinder_harbor_shore_shelf"
    }
  ],
  "meshes": [
    {
      "name": "cinder_harbor_shore_shelf",
      "primitives": [
        {
          "attributes": {
            "POSITION": 0
          },
          "indices": 1,
          "mode": 4
        }
      ]
    }
  ],
  "buffers": [
    {
      "byteLength": 768,
      "uri": "data:application/octet-stream;base64,"
    }
  ],
  "bufferViews": [
    {
      "buffer": 0,
      "byteOffset": 0,
      "byteLength": 432,
      "target": 34962
    },
    {
      "buffer": 0,
      "byteOffset": 432,
      "byteLength": 336,
      "target": 34963
    }
  ],
  "accessors": [
    {
      "bufferView": 0,
      "byteOffset": 0,
      "componentType": 5126,
      "count": 36,
      "type": "VEC3",
      "min": [
        -1.12,
        -0.06,
        -0.36
      ],
      "max": [
        1.16,
        0.18,
        0.42
      ]
    },
    {
      "bufferView": 1,
      "byteOffset": 0,
      "componentType": 5123,
      "count": 168,
      "type": "SCALAR",
      "min": [
        0
      ],
      "max": [
        35
      ]
    }
  ]
}
