{
  "asset": {
    "version": "2.0",
    "generator": "Tidebreak tools/create_simple_prop_gltf.py v1.00 Cinder Harbor ground fallback helper",
    "extras": {
      "tidebreakSource": "project-original fallback geometry",
      "notBlenderExport": true
    }
  },
  "scene": 0,
  "scenes": [
    {
      "nodes": [
        0
      ]
    }
  ],
  "nodes": [
    {
      "mesh": 0,
      "name": "cinder_harbor_ground_patch"
    }
  ],
  "meshes": [
    {
      "name": "cinder_harbor_ground_patch",
      "primitives": [
        {
          "attributes": {
            "POSITION": 0
          },
          "indices": 1,
          "mode": 4
        }
      ]
    }
  ],
  "buffers": [
    {
      "byteLength": 648,
      "uri": "data:application/octet-stream;base64,"
    }
  ],
  "bufferViews": [
    {
      "buffer": 0,
      "byteOffset": 0,
      "byteLength": 360,
      "target": 34962
    },
    {
      "buffer": 0,
      "byteOffset": 360,
      "byteLength": 288,
      "target": 34963
    }
  ],
  "accessors": [
    {
      "bufferView": 0,
      "byteOffset": 0,
      "componentType": 5126,
      "count": 30,
      "type": "VEC3",
      "min": [
        -1.06,
        -0.035,
        -0.78
      ],
      "max": [
        1.05,
        0.1,
        0.82
      ]
    },
    {
      "bufferView": 1,
      "byteOffset": 0,
      "componentType": 5123,
      "count": 144,
      "type": "SCALAR",
      "min": [
        0
      ],
      "max": [
        29
      ]
    }
  ]
}
