{
  "asset": {
    "version": "2.0",
    "generator": "Tidebreak tools/create_simple_prop_gltf.py v0.58 clearance tag fallback helper",
    "extras": {
      "tidebreakSource": "project-original fallback geometry",
      "notBlenderExport": true
    }
  },
  "scene": 0,
  "scenes": [
    {
      "nodes": [
        0
      ]
    }
  ],
  "nodes": [
    {
      "mesh": 0,
      "name": "clearance_tag"
    }
  ],
  "meshes": [
    {
      "name": "clearance_tag",
      "primitives": [
        {
          "attributes": {
            "POSITION": 0
          },
          "indices": 1,
          "mode": 4
        }
      ]
    }
  ],
  "buffers": [
    {
      "byteLength": 672,
      "uri": "data:application/octet-stream;base64,"
    }
  ],
  "bufferViews": [
    {
      "buffer": 0,
      "byteOffset": 0,
      "byteLength": 384,
      "target": 34962
    },
    {
      "buffer": 0,
      "byteOffset": 384,
      "byteLength": 288,
      "target": 34963
    }
  ],
  "accessors": [
    {
      "bufferView": 0,
      "byteOffset": 0,
      "componentType": 5126,
      "count": 32,
      "type": "VEC3",
      "min": [
        -0.26,
        0.0,
        -0.1
      ],
      "max": [
        0.26,
        0.97,
        0.1
      ]
    },
    {
      "bufferView": 1,
      "byteOffset": 0,
      "componentType": 5123,
      "count": 144,
      "type": "SCALAR",
      "min": [
        0
      ],
      "max": [
        31
      ]
    }
  ]
}
