{
  "asset": {
    "version": "2.0",
    "generator": "Tidebreak tools/create_simple_prop_gltf.py v0.20 fallback helper",
    "extras": {
      "tidebreakSource": "project-original fallback geometry",
      "notBlenderExport": true
    }
  },
  "scene": 0,
  "scenes": [
    {
      "nodes": [
        0
      ]
    }
  ],
  "nodes": [
    {
      "mesh": 0,
      "name": "ferry_notice_board"
    }
  ],
  "meshes": [
    {
      "name": "ferry_notice_board",
      "primitives": [
        {
          "attributes": {
            "POSITION": 0
          },
          "indices": 1,
          "mode": 4
        }
      ]
    }
  ],
  "buffers": [
    {
      "byteLength": 504,
      "uri": "data:application/octet-stream;base64,"
    }
  ],
  "bufferViews": [
    {
      "buffer": 0,
      "byteOffset": 0,
      "byteLength": 288,
      "target": 34962
    },
    {
      "buffer": 0,
      "byteOffset": 288,
      "byteLength": 216,
      "target": 34963
    }
  ],
  "accessors": [
    {
      "bufferView": 0,
      "byteOffset": 0,
      "componentType": 5126,
      "count": 24,
      "type": "VEC3",
      "min": [
        -0.58,
        0.0,
        -0.16
      ],
      "max": [
        0.58,
        1.42,
        0.16
      ]
    },
    {
      "bufferView": 1,
      "byteOffset": 0,
      "componentType": 5123,
      "count": 108,
      "type": "SCALAR",
      "min": [
        0
      ],
      "max": [
        23
      ]
    }
  ]
}
