{
  "asset": {
    "version": "2.0",
    "generator": "Tidebreak v0.18 static prop generator"
  },
  "scene": 0,
  "scenes": [
    {
      "nodes": [
        0
      ]
    }
  ],
  "nodes": [
    {
      "mesh": 0
    }
  ],
  "meshes": [
    {
      "name": "mesh",
      "primitives": [
        {
          "attributes": {
            "POSITION": 0
          },
          "indices": 1,
          "mode": 4
        }
      ]
    }
  ],
  "buffers": [
    {
      "byteLength": 504,
      "uri": "data:application/octet-stream;base64,"
    }
  ],
  "bufferViews": [
    {
      "buffer": 0,
      "byteOffset": 0,
      "byteLength": 288
    },
    {
      "buffer": 0,
      "byteOffset": 288,
      "byteLength": 216
    }
  ],
  "accessors": [
    {
      "bufferView": 0,
      "componentType": 5126,
      "count": 24,
      "type": "VEC3",
      "min": [
        -0.32,
        0,
        -0.25
      ],
      "max": [
        0.32,
        0.88,
        0.22
      ]
    },
    {
      "bufferView": 1,
      "componentType": 5123,
      "count": 108,
      "type": "SCALAR"
    }
  ]
}
